:SAMPLES-PER-SECOND 30
:FULLY-SPECIFIED
:DEGREES
176
root  16.50782157 38.85288989 -10.07237772 -1.932130098 -64.98349762 4.391799927
lfemur  -20.12969208 5.45799017 -7.571191788
ltibia  -1.491570742e-006 -8.364404493e-007 58.54568863
lfoot  5.521815751e-007 -15.136096 8.797520638
ltoes  -4.250644065 -19.5611806 -102.515957
rfemur  -3.888534784 13.06610107 7.25497818
rtibia  -8.727266732e-007 2.533748784e-007 43.02729034
rfoot  -2.316020982e-006 -26.24969482 -13.26969814
rtoes  5.373923086 19.29304026 -105.8922705
lowerback  9.038619995 1.443199992 1.053169966
upperback  1.932090044 2.023420095 1.463979959
thorax  -3.077199936 0.981760025 0.6902340055
rclavicle  0 -9.442270133e-015 7.951389973e-016
rhumerus  5.542029381 22.74370003 -75.03209686
rradius  -7.782816926e-012 0.001642658608 138.6710052
rwrist  0.002739921212 0.003270594636 -12.72239971
rthumb  -92.93752616 -24.25625642 -97.11982154
rhand  -7.920061211e-032 -33.2840004 9.303460121
rfingers  -90 -7.125020027 -90
lclavicle  0 -9.442270133e-015 7.951389973e-016
lhumerus  2.487080336 -6.97713995 67.40540314
lradius  1.032090038e-011 0.005718162749 145.8569946
lwrist  1.816137865e-011 1.409039812e-011 -2.784189939
lthumb  89.89689403 5.08795885 91.16245106
lhand  -1.496451383e-031 -27.76390076 20.11240005
lfingers  90 7.125020027 -90
lowerneck  -5.729780197 9.475020409 -4.875229836
upperneck  12.33329964 13.29089928 -0.5768371224
head  4.850729942 6.232910156 1.399199963
177
root  16.53766782 38.89000059 -10.12442206 -0.6532890797 -65.35620117 3.300169945
lfemur  -21.02079964 5.775240421 -6.702540398
ltibia  -1.491570742e-006 -8.364404493e-007 59.42470169
lfoot  5.521815751e-007 -13.3239994 8.120759964
ltoes  -4.250644065 -19.5611806 -102.515957
rfemur  -4.627349854 12.76920033 7.541539669
rtibia  -8.727266732e-007 2.533748784e-007 43.26889801
rfoot  -2.316020982e-006 -25.74429893 -13.03399944
rtoes  5.373923086 19.29304026 -105.8922705
lowerback  8.921589851 1.336869955 1.534440041
upperback  2.074359894 1.920719981 1.59968996
thorax  -2.852940083 0.9268540144 0.5772489905
rclavicle  0 -9.442270133e-015 7.951389973e-016
rhumerus  5.620139599 22.80780029 -75.10510254
rradius  -7.782816926e-012 0.001642658608 138.8690033
rwrist  0.002739921212 0.003270594636 -13.16829967
rthumb  -92.93752616 -24.25625642 -97.11982154
rhand  -7.920061211e-032 -33.2840004 9.303460121
rfingers  -90 -7.125020027 -90
lclavicle  0 -9.442270133e-015 7.951389973e-016
lhumerus  2.06305027 -6.635469437 67.39299774
lradius  1.032089952e-011 0.005718162749 146.2610016
lwrist  1.816137865e-011 1.409039812e-011 -3.024349928
lthumb  89.89689403 5.08795885 91.16245106
lhand  -1.496451383e-031 -27.76390076 20.11240005
lfingers  90 7.125020027 -90
lowerneck  -5.805019855 9.544119835 -4.791989803
upperneck  11.77630043 13.42759895 -1.134000063
head  4.707530022 6.292620182 1.19343996
178
root  16.57493321 38.93599923 -10.17526642 0.03945812955 -65.73560333 2.798570156
lfemur  -21.87549591 5.878089905 -6.05627203
ltibia  -1.491570742e-006 -8.364404493e-007 60.26699066
lfoot  5.521815751e-007 -11.6116972 7.163500309
ltoes  -4.250644065 -19.5611806 -102.515957
rfemur  -5.479347706 12.519701 7.565368176
rtibia  -8.727266732e-007 2.533748784e-007 43.7625885
rfoot  -2.316020982e-006 -25.19129181 -12.61319923
rtoes  5.373923086 19.29304026 -105.8922705
lowerback  8.867540359 1.299100041 1.712499738
upperback  2.222160101 1.878569961 1.623479962
thorax  -2.66486001 0.9048619866 0.5100229979
rclavicle  0 -9.442270133e-015 7.951389973e-016
rhumerus  5.585589886 22.71150017 -75.31529999
rradius  -7.782816926e-012 0.001642658608 139.0850067
rwrist  0.002739921212 0.003270594636 -13.40610027
rthumb  -92.93752616 -24.25625642 -97.11982154
rhand  -7.920061211e-032 -33.2840004 9.303460121
rfingers  -90 -7.125020027 -90
lclavicle  0 -9.442270133e-015 7.951389973e-016
lhumerus  1.793589711 -6.397630215 67.29029846
lradius  1.032090038e-011 0.005718162749 146.6380005
lwrist  1.816137865e-011 1.409039812e-011 -3.156209946
lthumb  89.89689403 5.08795885 91.16245106
lhand  -1.496451383e-031 -27.76390076 20.11240005
lfingers  90 7.125020027 -90
lowerneck  -5.666160107 9.56744957 -4.567230225
upperneck  11.10830021 13.46759987 -1.71754992
head  4.497369766 6.317299843 0.9362689853
179
root  16.61942249 39.00755634 -10.22393309 -0.05645639077 -66.16390228 3.012959957
lfemur  -22.51709938 5.904170036 -5.693181038
ltibia  -1.491570742e-006 -8.364404493e-007 60.92379761
lfoot  5.521815751e-007 -9.907226563 5.732170105
ltoes  -4.250644065 -19.5611806 -102.515957
rfemur  -6.419486523 12.16629982 7.246459961
rtibia  -8.727266732e-007 2.533748784e-007 44.54659271
rfoot  -2.316020982e-006 -24.44209862 -11.90229797
rtoes  5.373923086 19.29304026 -105.8922705
lowerback  8.983309746 1.285570025 1.574449897
upperback  2.41527009 1.839429975 1.515759945
thorax  -2.529979944 0.8856430054 0.4803940058
rclavicle  0 -9.442270133e-015 7.951389973e-016
rhumerus  5.535759926 22.6378994 -75.59770203
rradius  -7.782816926e-012 0.001642658608 139.2879944
rwrist  0.002739921212 0.003270594636 -13.45119953
rthumb  -92.93752616 -24.25625642 -97.11982154
rhand  -7.920061211e-032 -33.2840004 9.303460121
rfingers  -90 -7.125020027 -90
lclavicle  0 -9.442270133e-015 7.951389973e-016
lhumerus  1.77369976 -5.86604023 67.01799774
lradius  1.032089952e-011 0.005718162749 146.9219971
lwrist  1.816137865e-011 1.409039812e-011 -2.98266983
lthumb  89.89689403 5.08795885 91.16245106
lhand  -1.496451383e-031 -27.76390076 20.11240005
lfingers  90 7.125020027 -90
lowerneck  -5.425350189 9.613679886 -4.295539856
upperneck  10.35229969 13.51309967 -2.248790026
head  4.23732996 6.355490208 0.6819900274
180
root  16.67657837 39.08844295 -10.27506656 -0.8623771071 -66.71009827 3.828730106
lfemur  -22.94779968 5.954690456 -5.539711952
ltibia  -1.491570742e-006 -8.364404493e-007 61.44609451
lfoot  5.521815751e-007 -8.282445908 3.744290352
ltoes  -4.250644065 -19.5611806 -102.515957
rfemur  -7.471703053 11.91940022 6.671779633
rtibia  -8.727266732e-007 2.533748784e-007 45.67778397
rfoot  -2.316020982e-006 -23.49239349 -11.15469837
rtoes  5.373923086 19.29304026 -105.8922705
lowerback  9.390299797 1.337000012 1.160920024
upperback  2.631930113 1.863070011 1.314579964
thorax  -2.537220001 0.8968279958 0.4953640103
rclavicle  0 -9.442270133e-015 7.951389973e-016
rhumerus  5.501430035 22.56629944 -75.88210297
rradius  -7.782817793e-012 0.001642658608 139.4750061
rwrist  0.002739921212 0.003270594636 -13.61089993
rthumb  -92.93752616 -24.25625642 -97.11982154
rhand  -7.920061211e-032 -33.2840004 9.303460121
rfingers  -90 -7.125020027 -90
lclavicle  0 -9.442270133e-015 7.951389973e-016
lhumerus  2.058300734 -4.928359985 66.58850098
lradius  1.032089952e-011 0.005718162749 147.0659943
lwrist  1.816137865e-011 1.409039812e-011 -2.358560324
lthumb  89.89689403 5.08795885 91.16245106
lhand  -1.496451383e-031 -27.76390076 20.11240005
lfingers  90 7.125020027 -90
lowerneck  -5.253029823 9.710550308 -4.101240158
upperneck  9.694879532 13.61790085 -2.571170092
head  4.006559849 6.426980019 0.5192159414
181
root  16.74568897 39.17911259 -10.31782195 -1.78414011 -67.32659912 4.804419994
lfemur  -23.43219757 6.079760075 -5.430768967
ltibia  -1.491570742e-006 -8.364404493e-007 61.87850189
lfoot  5.521815751e-007 -6.804900169 1.271440506
ltoes  -4.250644065 -19.5611806 -102.515957
rfemur  -8.855968475 11.7142992 5.996151924
rtibia  -8.727266732e-007 2.533748784e-007 47.16030121
rfoot  -2.316020982e-006 -22.14580154 -10.56739902
rtoes  5.373923086 19.29304026 -105.8922705
lowerback  9.868929863 1.460209966 0.7003330588
upperback  2.794310093 1.976019979 1.1171
thorax  -2.641880035 0.9516869783 0.5271940231
rclavicle  0 -9.442270133e-015 7.951389973e-016
rhumerus  5.364419937 22.38369942 -76.10489655
rradius  -7.782816926e-012 0.001642658608 139.6600037
rwrist  0.002739921212 0.003270594636 -13.90880013
rthumb  -92.93752616 -24.25625642 -97.11982154
rhand  -7.920061211e-032 -33.2840004 9.303460121
rfingers  -90 -7.125020027 -90
lclavicle  0 -9.442270133e-015 7.951389973e-016
lhumerus  2.446789742 -4.200650215 66.27069855
lradius  1.032090038e-011 0.005718162749 147.151001
lwrist  1.816137865e-011 1.409039812e-011 -1.561120152
lthumb  89.89689403 5.08795885 91.16245106
lhand  -1.496451383e-031 -27.76390076 20.11240005
lfingers  90 7.125020027 -90
lowerneck  -5.122220039 9.778779984 -4.126440048
upperneck  9.207799911 13.69150066 -2.693979979
head  3.814739943 6.477940083 0.4611530006
182
root  16.82193486 39.27288806 -10.33153309 -2.593830109 -67.96890259 5.738959789
lfemur  -23.9852047 6.125750542 -5.322200298
ltibia  -1.491570742e-006 -8.364404493e-007 62.26130295
lfoot  5.521815751e-007 -5.695018291 -1.560530305
ltoes  -4.250644065 -19.5611806 -102.515957
rfemur  -10.5790987 11.37779999 5.188678741
rtibia  -8.727266732e-007 2.533748784e-007 49.0073967
rfoot  -2.316020982e-006 -20.58489799 -9.404959679
rtoes  5.373923086 19.29304026 -105.8922705
lowerback  10.22239971 1.577579975 0.3924940825
upperback  2.949229956 2.089780092 0.8849470019
thorax  -2.678809881 1.006680012 0.439229995
rclavicle  0 -9.442270133e-015 7.951389973e-016
rhumerus  5.316710472 22.29730034 -76.32559967
rradius  -7.782816926e-012 0.001642658608 139.7799988
rwrist  0.002739921212 0.003270594636 -14.06569958
rthumb  -92.93752616 -24.25625642 -97.11982154
rhand  -7.920061211e-032 -33.2840004 9.303460121
rfingers  -90 -7.125020027 -90
lclavicle  0 -9.442270133e-015 7.951389973e-016
lhumerus  2.979099035 -3.628950596 65.92340088
lradius  1.032090038e-011 0.005718162749 147.1730042
lwrist  1.816137865e-011 1.409039812e-011 -0.6320698857
lthumb  89.89689403 5.08795885 91.16245106
lhand  -1.496451383e-031 -27.76390076 20.11240005
lfingers  90 7.125020027 -90
lowerneck  -5.110720158 9.843299866 -4.212669849
upperneck  8.930689812 13.7706995 -2.698999882
head  3.707350016 6.525350094 0.4647590816
